<svg width="1319" height="456" viewBox="0 0 1319 456" fill="none" xmlns="http://www.w3.org/2000/svg">
<path d="M484.006 168.169H410.006C419.606 98.9688 389.006 60.0022 372.506 49.1689C321.306 3.96894 232.173 24.0023 194.006 39.6689C192.406 36.8689 217.673 23.8356 230.506 17.6689C267.339 4.33552 357.206 -14.3311 422.006 17.6689C486.806 49.6689 490.339 131.336 484.006 168.169Z" fill="#DA0000"/>
<path d="M198.506 78.1692C129.506 110.169 78.3393 186.169 63.0059 224.169C49.8393 257.669 38.5059 332.069 98.5059 361.669C158.506 391.269 239.506 359.336 272.506 339.669C232.339 370.336 134.906 422.469 66.506 385.669C-1.89404 348.869 0.672629 276.336 10.506 244.669C19.506 205.169 61.006 143.669 73.006 133.169C91.506 111.836 140.506 69.1689 176.506 56.1689C194.673 47.1689 241.006 32.1688 270.006 32.1689C301.206 34.5689 320.339 39.5023 326.006 41.6689C342.006 47.7866 372.006 72.6694 372.006 82.6692C330.006 41.6693 255.509 51.7329 198.506 78.1692Z" fill="#9A9A9A"/>
<path d="M405.006 321.669H319.006C312.606 330.069 298.339 342.169 292.006 347.169C262.006 372.002 183.706 419.869 110.506 412.669C37.306 405.469 7.00601 353.336 1.006 328.169C-2.194 333.369 2.67263 366.002 9.506 378.669C49.506 449.869 144.839 459.336 187.506 455.169C193.429 453.962 239.006 445.646 275.506 424.669C319.006 399.669 384.173 348.502 405.006 321.669Z" fill="#DA0000"/>
<path d="M185.656 259.203C181.719 265.078 177.25 269.344 172.25 272C167.25 274.625 161.438 275.938 154.812 275.938C149.156 275.938 144.234 274.812 140.047 272.562C135.891 270.281 132.719 267.047 130.531 262.859C128.375 258.672 127.297 253.828 127.297 248.328C127.297 240.641 128.938 233.688 132.219 227.469C135.5 221.25 140.047 216.453 145.859 213.078C151.703 209.672 158.219 207.969 165.406 207.969C172.188 207.969 177.906 209.391 182.562 212.234C187.25 215.047 190.344 219.016 191.844 224.141L183.406 226.719C182.281 223.219 180.094 220.438 176.844 218.375C173.625 216.312 169.656 215.281 164.938 215.281C159.188 215.281 154.125 216.672 149.75 219.453C145.375 222.203 142.016 226.094 139.672 231.125C137.328 236.125 136.156 241.906 136.156 248.469C136.156 254.719 137.859 259.656 141.266 263.281C144.672 266.875 149.391 268.672 155.422 268.672C160.047 268.672 164.359 267.531 168.359 265.25C172.359 262.938 175.891 259.531 178.953 255.031L185.656 259.203ZM234.828 275.469C231.922 275.469 229.797 274.875 228.453 273.688C227.141 272.469 226.484 270.672 226.484 268.297L226.719 265.297H226.438C223.844 269.234 221.156 272 218.375 273.594C215.594 275.156 212.234 275.938 208.297 275.938C203.922 275.938 200.359 274.625 197.609 272C194.891 269.375 193.531 266.031 193.531 261.969C193.531 256.188 195.594 251.812 199.719 248.844C203.875 245.875 210.484 244.328 219.547 244.203L230.422 244.062C231.016 241 231.312 239.016 231.312 238.109C231.312 235.266 230.484 233.172 228.828 231.828C227.172 230.453 224.875 229.766 221.938 229.766C218.219 229.766 215.406 230.438 213.5 231.781C211.594 233.094 210.219 235.109 209.375 237.828L201.031 236.469C202.438 231.875 204.875 228.547 208.344 226.484C211.844 224.391 216.531 223.344 222.406 223.344C227.75 223.344 231.969 224.594 235.062 227.094C238.188 229.594 239.75 232.953 239.75 237.172C239.75 239.172 239.453 241.625 238.859 244.531L235.391 262.25C235.047 263.75 234.875 265.125 234.875 266.375C234.875 268.656 236.141 269.797 238.672 269.797C239.516 269.797 240.453 269.688 241.484 269.469L240.828 274.719C238.766 275.219 236.766 275.469 234.828 275.469ZM229.297 249.875L219.969 250.062C216.25 250.156 213.328 250.5 211.203 251.094C209.078 251.656 207.422 252.391 206.234 253.297C205.078 254.172 204.156 255.297 203.469 256.672C202.812 258.016 202.484 259.656 202.484 261.594C202.484 263.938 203.234 265.844 204.734 267.312C206.266 268.781 208.234 269.516 210.641 269.516C213.672 269.516 216.406 268.875 218.844 267.594C221.281 266.281 223.297 264.578 224.891 262.484C226.484 260.391 227.531 258.141 228.031 255.734L229.297 249.875ZM257.703 275.938C255.047 275.938 252.953 275.141 251.422 273.547C249.922 271.953 249.172 269.844 249.172 267.219C249.172 265.5 249.406 263.469 249.875 261.125L255.781 230.422H249.922L251.141 224.281H257.094L262.016 212.938H267.641L265.438 224.281H274.812L273.594 230.422H264.219L258.359 260.656C257.984 262.531 257.797 264.016 257.797 265.109C257.797 267.859 259.203 269.234 262.016 269.234C263.328 269.234 264.891 269.016 266.703 268.578L265.812 274.812C262.719 275.562 260.016 275.938 257.703 275.938ZM289.484 232.953C292.078 229.359 294.672 226.875 297.266 225.5C299.891 224.094 303 223.391 306.594 223.391C311.219 223.391 314.688 224.531 317 226.812C319.344 229.094 320.516 232.391 320.516 236.703C320.516 238.703 320.188 241.266 319.531 244.391L313.578 275H305.094L311 244.766C311.562 242.016 311.844 239.672 311.844 237.734C311.844 232.516 309.047 229.906 303.453 229.906C299.516 229.906 296.047 231.406 293.047 234.406C290.047 237.406 288.047 241.469 287.047 246.594L281.516 275H273.125L286.625 205.438H295.062L291.547 223.531C290.984 226.656 290.25 229.797 289.344 232.953H289.484ZM336.969 251.422C336.781 252.516 336.641 254.281 336.547 256.719C336.547 260.875 337.578 264.062 339.641 266.281C341.734 268.5 344.875 269.609 349.062 269.609C352.094 269.609 354.844 268.859 357.312 267.359C359.781 265.859 361.703 263.812 363.078 261.219L369.547 264.172C367.266 268.266 364.359 271.25 360.828 273.125C357.328 275 353.078 275.938 348.078 275.938C341.797 275.938 336.906 274.203 333.406 270.734C329.938 267.234 328.203 262.328 328.203 256.016C328.203 249.734 329.312 244.109 331.531 239.141C333.75 234.141 336.875 230.266 340.906 227.516C344.938 224.734 349.469 223.344 354.5 223.344C360.906 223.344 365.891 224.953 369.453 228.172C373.016 231.391 374.797 235.938 374.797 241.812C374.797 245.094 374.422 248.297 373.672 251.422H336.969ZM366.219 244.953L366.406 241.578C366.406 237.703 365.391 234.734 363.359 232.672C361.359 230.609 358.469 229.578 354.688 229.578C350.5 229.578 346.969 230.922 344.094 233.609C341.25 236.266 339.25 240.047 338.094 244.953H366.219ZM412.062 231.031C410.688 230.625 409.281 230.422 407.844 230.422C404.562 230.422 401.594 232.141 398.938 235.578C396.312 239.016 394.531 243.344 393.594 248.562L388.438 275H380L387.594 236.094L388.766 229.625L389.609 224.281H397.578L395.938 234.641H396.125C398.188 230.484 400.219 227.562 402.219 225.875C404.219 224.188 406.531 223.344 409.156 223.344C410.594 223.344 412.078 223.562 413.609 224L412.062 231.031ZM423.828 213.5L425.422 205.438H433.859L432.266 213.5H423.828ZM411.922 275L421.766 224.281H430.203L420.312 275H411.922ZM465.359 275L471.266 244.766C471.828 242.016 472.109 239.672 472.109 237.734C472.109 232.516 469.312 229.906 463.719 229.906C459.781 229.906 456.312 231.406 453.312 234.406C450.312 237.406 448.312 241.469 447.312 246.594L441.781 275H433.344L441.125 235.109C441.75 232.141 442.359 228.531 442.953 224.281H450.922C450.922 224.625 450.75 225.844 450.406 227.938C450.094 230 449.828 231.672 449.609 232.953H449.75C452.344 229.359 454.938 226.875 457.531 225.5C460.156 224.094 463.266 223.391 466.859 223.391C471.484 223.391 474.953 224.531 477.266 226.812C479.609 229.094 480.781 232.391 480.781 236.703C480.781 238.703 480.453 241.266 479.797 244.391L473.844 275H465.359ZM497.188 251.422C497 252.516 496.859 254.281 496.766 256.719C496.766 260.875 497.797 264.062 499.859 266.281C501.953 268.5 505.094 269.609 509.281 269.609C512.312 269.609 515.062 268.859 517.531 267.359C520 265.859 521.922 263.812 523.297 261.219L529.766 264.172C527.484 268.266 524.578 271.25 521.047 273.125C517.547 275 513.297 275.938 508.297 275.938C502.016 275.938 497.125 274.203 493.625 270.734C490.156 267.234 488.422 262.328 488.422 256.016C488.422 249.734 489.531 244.109 491.75 239.141C493.969 234.141 497.094 230.266 501.125 227.516C505.156 224.734 509.688 223.344 514.719 223.344C521.125 223.344 526.109 224.953 529.672 228.172C533.234 231.391 535.016 235.938 535.016 241.812C535.016 245.094 534.641 248.297 533.891 251.422H497.188ZM526.438 244.953L526.625 241.578C526.625 237.703 525.609 234.734 523.578 232.672C521.578 230.609 518.688 229.578 514.906 229.578C510.719 229.578 507.188 230.922 504.312 233.609C501.469 236.266 499.469 240.047 498.312 244.953H526.438ZM629 259.203C625.062 265.078 620.594 269.344 615.594 272C610.594 274.625 604.781 275.938 598.156 275.938C592.5 275.938 587.578 274.812 583.391 272.562C579.234 270.281 576.062 267.047 573.875 262.859C571.719 258.672 570.641 253.828 570.641 248.328C570.641 240.641 572.281 233.688 575.562 227.469C578.844 221.25 583.391 216.453 589.203 213.078C595.047 209.672 601.562 207.969 608.75 207.969C615.531 207.969 621.25 209.391 625.906 212.234C630.594 215.047 633.688 219.016 635.188 224.141L626.75 226.719C625.625 223.219 623.438 220.438 620.188 218.375C616.969 216.312 613 215.281 608.281 215.281C602.531 215.281 597.469 216.672 593.094 219.453C588.719 222.203 585.359 226.094 583.016 231.125C580.672 236.125 579.5 241.906 579.5 248.469C579.5 254.719 581.203 259.656 584.609 263.281C588.016 266.875 592.734 268.672 598.766 268.672C603.391 268.672 607.703 267.531 611.703 265.25C615.703 262.938 619.234 259.531 622.297 255.031L629 259.203ZM685.062 242.984C685.062 247.047 684.438 251.281 683.188 255.688C681.938 260.062 680.141 263.781 677.797 266.844C675.484 269.875 672.641 272.156 669.266 273.688C665.891 275.188 662.047 275.938 657.734 275.938C651.609 275.938 646.766 274.094 643.203 270.406C639.641 266.719 637.859 261.703 637.859 255.359C637.984 248.984 639.141 243.328 641.328 238.391C643.516 233.453 646.547 229.719 650.422 227.188C654.297 224.656 659.094 223.391 664.812 223.391C671.375 223.391 676.391 225.109 679.859 228.547C683.328 231.953 685.062 236.766 685.062 242.984ZM676.344 242.984C676.344 234.047 672.469 229.578 664.719 229.578C660.5 229.578 657.109 230.672 654.547 232.859C652.016 235.016 650.047 238.297 648.641 242.703C647.234 247.109 646.531 251.375 646.531 255.5C646.531 260.125 647.531 263.656 649.531 266.094C651.531 268.5 654.438 269.703 658.25 269.703C661.469 269.703 664.047 269.172 665.984 268.109C667.953 267.016 669.672 265.328 671.141 263.047C672.609 260.734 673.797 257.797 674.703 254.234C675.641 250.672 676.188 246.922 676.344 242.984ZM707.609 224.281L701.703 254.516C701.141 257.266 700.859 259.609 700.859 261.547C700.859 266.766 703.656 269.375 709.25 269.375C713.188 269.375 716.656 267.875 719.656 264.875C722.656 261.875 724.656 257.812 725.656 252.688L731.188 224.281H739.625L731.844 264.172C731.219 267.141 730.609 270.75 730.016 275H722.047C722.047 274.656 722.203 273.453 722.516 271.391C722.859 269.297 723.141 267.609 723.359 266.328H723.219C720.625 269.922 718.016 272.422 715.391 273.828C712.797 275.203 709.703 275.891 706.109 275.891C701.484 275.891 698 274.75 695.656 272.469C693.344 270.188 692.188 266.891 692.188 262.578C692.188 260.578 692.516 258.016 693.172 254.891L699.125 224.281H707.609ZM775.25 231.031C773.875 230.625 772.469 230.422 771.031 230.422C767.75 230.422 764.781 232.141 762.125 235.578C759.5 239.016 757.719 243.344 756.781 248.562L751.625 275H743.188L750.781 236.094L751.953 229.625L752.797 224.281H760.766L759.125 234.641H759.312C761.375 230.484 763.406 227.562 765.406 225.875C767.406 224.188 769.719 223.344 772.344 223.344C773.781 223.344 775.266 223.562 776.797 224L775.25 231.031ZM807.219 231.031C805.844 230.625 804.438 230.422 803 230.422C799.719 230.422 796.75 232.141 794.094 235.578C791.469 239.016 789.688 243.344 788.75 248.562L783.594 275H775.156L782.75 236.094L783.922 229.625L784.766 224.281H792.734L791.094 234.641H791.281C793.344 230.484 795.375 227.562 797.375 225.875C799.375 224.188 801.688 223.344 804.312 223.344C805.75 223.344 807.234 223.562 808.766 224L807.219 231.031ZM817.531 251.422C817.344 252.516 817.203 254.281 817.109 256.719C817.109 260.875 818.141 264.062 820.203 266.281C822.297 268.5 825.438 269.609 829.625 269.609C832.656 269.609 835.406 268.859 837.875 267.359C840.344 265.859 842.266 263.812 843.641 261.219L850.109 264.172C847.828 268.266 844.922 271.25 841.391 273.125C837.891 275 833.641 275.938 828.641 275.938C822.359 275.938 817.469 274.203 813.969 270.734C810.5 267.234 808.766 262.328 808.766 256.016C808.766 249.734 809.875 244.109 812.094 239.141C814.312 234.141 817.438 230.266 821.469 227.516C825.5 224.734 830.031 223.344 835.062 223.344C841.469 223.344 846.453 224.953 850.016 228.172C853.578 231.391 855.359 235.938 855.359 241.812C855.359 245.094 854.984 248.297 854.234 251.422H817.531ZM846.781 244.953L846.969 241.578C846.969 237.703 845.953 234.734 843.922 232.672C841.922 230.609 839.031 229.578 835.25 229.578C831.062 229.578 827.531 230.922 824.656 233.609C821.812 236.266 819.812 240.047 818.656 244.953H846.781ZM871.859 275.938C869.203 275.938 867.109 275.141 865.578 273.547C864.078 271.953 863.328 269.844 863.328 267.219C863.328 265.5 863.562 263.469 864.031 261.125L869.938 230.422H864.078L865.297 224.281H871.25L876.172 212.938H881.797L879.594 224.281H888.969L887.75 230.422H878.375L872.516 260.656C872.141 262.531 871.953 264.016 871.953 265.109C871.953 267.859 873.359 269.234 876.172 269.234C877.484 269.234 879.047 269.016 880.859 268.578L879.969 274.812C876.875 275.562 874.172 275.938 871.859 275.938ZM976.062 259.203C972.125 265.078 967.656 269.344 962.656 272C957.656 274.625 951.844 275.938 945.219 275.938C939.562 275.938 934.641 274.812 930.453 272.562C926.297 270.281 923.125 267.047 920.938 262.859C918.781 258.672 917.703 253.828 917.703 248.328C917.703 240.641 919.344 233.688 922.625 227.469C925.906 221.25 930.453 216.453 936.266 213.078C942.109 209.672 948.625 207.969 955.812 207.969C962.594 207.969 968.312 209.391 972.969 212.234C977.656 215.047 980.75 219.016 982.25 224.141L973.812 226.719C972.688 223.219 970.5 220.438 967.25 218.375C964.031 216.312 960.062 215.281 955.344 215.281C949.594 215.281 944.531 216.672 940.156 219.453C935.781 222.203 932.422 226.094 930.078 231.125C927.734 236.125 926.562 241.906 926.562 248.469C926.562 254.719 928.266 259.656 931.672 263.281C935.078 266.875 939.797 268.672 945.828 268.672C950.453 268.672 954.766 267.531 958.766 265.25C962.766 262.938 966.297 259.531 969.359 255.031L976.062 259.203ZM1032.12 242.984C1032.12 247.047 1031.5 251.281 1030.25 255.688C1029 260.062 1027.2 263.781 1024.86 266.844C1022.55 269.875 1019.7 272.156 1016.33 273.688C1012.95 275.188 1009.11 275.938 1004.8 275.938C998.672 275.938 993.828 274.094 990.266 270.406C986.703 266.719 984.922 261.703 984.922 255.359C985.047 248.984 986.203 243.328 988.391 238.391C990.578 233.453 993.609 229.719 997.484 227.188C1001.36 224.656 1006.16 223.391 1011.88 223.391C1018.44 223.391 1023.45 225.109 1026.92 228.547C1030.39 231.953 1032.12 236.766 1032.12 242.984ZM1023.41 242.984C1023.41 234.047 1019.53 229.578 1011.78 229.578C1007.56 229.578 1004.17 230.672 1001.61 232.859C999.078 235.016 997.109 238.297 995.703 242.703C994.297 247.109 993.594 251.375 993.594 255.5C993.594 260.125 994.594 263.656 996.594 266.094C998.594 268.5 1001.5 269.703 1005.31 269.703C1008.53 269.703 1011.11 269.172 1013.05 268.109C1015.02 267.016 1016.73 265.328 1018.2 263.047C1019.67 260.734 1020.86 257.797 1021.77 254.234C1022.7 250.672 1023.25 246.922 1023.41 242.984ZM1078.67 275.469C1075.77 275.469 1073.64 274.875 1072.3 273.688C1070.98 272.469 1070.33 270.672 1070.33 268.297L1070.56 265.297H1070.28C1067.69 269.234 1065 272 1062.22 273.594C1059.44 275.156 1056.08 275.938 1052.14 275.938C1047.77 275.938 1044.2 274.625 1041.45 272C1038.73 269.375 1037.38 266.031 1037.38 261.969C1037.38 256.188 1039.44 251.812 1043.56 248.844C1047.72 245.875 1054.33 244.328 1063.39 244.203L1074.27 244.062C1074.86 241 1075.16 239.016 1075.16 238.109C1075.16 235.266 1074.33 233.172 1072.67 231.828C1071.02 230.453 1068.72 229.766 1065.78 229.766C1062.06 229.766 1059.25 230.438 1057.34 231.781C1055.44 233.094 1054.06 235.109 1053.22 237.828L1044.88 236.469C1046.28 231.875 1048.72 228.547 1052.19 226.484C1055.69 224.391 1060.38 223.344 1066.25 223.344C1071.59 223.344 1075.81 224.594 1078.91 227.094C1082.03 229.594 1083.59 232.953 1083.59 237.172C1083.59 239.172 1083.3 241.625 1082.7 244.531L1079.23 262.25C1078.89 263.75 1078.72 265.125 1078.72 266.375C1078.72 268.656 1079.98 269.797 1082.52 269.797C1083.36 269.797 1084.3 269.688 1085.33 269.469L1084.67 274.719C1082.61 275.219 1080.61 275.469 1078.67 275.469ZM1073.14 249.875L1063.81 250.062C1060.09 250.156 1057.17 250.5 1055.05 251.094C1052.92 251.656 1051.27 252.391 1050.08 253.297C1048.92 254.172 1048 255.297 1047.31 256.672C1046.66 258.016 1046.33 259.656 1046.33 261.594C1046.33 263.938 1047.08 265.844 1048.58 267.312C1050.11 268.781 1052.08 269.516 1054.48 269.516C1057.52 269.516 1060.25 268.875 1062.69 267.594C1065.12 266.281 1067.14 264.578 1068.73 262.484C1070.33 260.391 1071.38 258.141 1071.88 255.734L1073.14 249.875ZM1110.64 269.281C1117.05 269.281 1121.56 265.688 1124.19 258.5L1131.5 260.797C1127.72 270.891 1120.7 275.938 1110.45 275.938C1104.45 275.938 1099.84 274.234 1096.62 270.828C1093.41 267.422 1091.8 262.641 1091.8 256.484C1091.8 250.234 1092.92 244.422 1095.17 239.047C1097.45 233.672 1100.45 229.719 1104.17 227.188C1107.92 224.625 1112.52 223.344 1117.95 223.344C1123.23 223.344 1127.41 224.672 1130.47 227.328C1133.56 229.984 1135.27 233.625 1135.58 238.25L1127.28 239.422C1127.09 236.391 1126.16 234.062 1124.47 232.438C1122.78 230.781 1120.52 229.953 1117.67 229.953C1113.73 229.953 1110.55 231.016 1108.11 233.141C1105.67 235.234 1103.78 238.578 1102.44 243.172C1101.09 247.766 1100.42 252.297 1100.42 256.766C1100.42 265.109 1103.83 269.281 1110.64 269.281ZM1154.61 232.953C1157.2 229.359 1159.8 226.875 1162.39 225.5C1165.02 224.094 1168.12 223.391 1171.72 223.391C1176.34 223.391 1179.81 224.531 1182.12 226.812C1184.47 229.094 1185.64 232.391 1185.64 236.703C1185.64 238.703 1185.31 241.266 1184.66 244.391L1178.7 275H1170.22L1176.12 244.766C1176.69 242.016 1176.97 239.672 1176.97 237.734C1176.97 232.516 1174.17 229.906 1168.58 229.906C1164.64 229.906 1161.17 231.406 1158.17 234.406C1155.17 237.406 1153.17 241.469 1152.17 246.594L1146.64 275H1138.25L1151.75 205.438H1160.19L1156.67 223.531C1156.11 226.656 1155.38 229.797 1154.47 232.953H1154.61ZM1203.55 213.5L1205.14 205.438H1213.58L1211.98 213.5H1203.55ZM1191.64 275L1201.48 224.281H1209.92L1200.03 275H1191.64ZM1245.08 275L1250.98 244.766C1251.55 242.016 1251.83 239.672 1251.83 237.734C1251.83 232.516 1249.03 229.906 1243.44 229.906C1239.5 229.906 1236.03 231.406 1233.03 234.406C1230.03 237.406 1228.03 241.469 1227.03 246.594L1221.5 275H1213.06L1220.84 235.109C1221.47 232.141 1222.08 228.531 1222.67 224.281H1230.64C1230.64 224.625 1230.47 225.844 1230.12 227.938C1229.81 230 1229.55 231.672 1229.33 232.953H1229.47C1232.06 229.359 1234.66 226.875 1237.25 225.5C1239.88 224.094 1242.98 223.391 1246.58 223.391C1251.2 223.391 1254.67 224.531 1256.98 226.812C1259.33 229.094 1260.5 232.391 1260.5 236.703C1260.5 238.703 1260.17 241.266 1259.52 244.391L1253.56 275H1245.08ZM1283.52 294.922C1272.92 294.922 1266.78 290.984 1265.09 283.109L1272.73 281.141C1273.83 286.047 1277.48 288.5 1283.7 288.5C1288.14 288.5 1291.58 287.344 1294.02 285.031C1296.45 282.75 1298.17 278.984 1299.17 273.734L1300.77 265.578H1300.67C1298.73 268.359 1297.02 270.359 1295.52 271.578C1294.05 272.797 1292.38 273.734 1290.5 274.391C1288.66 275.047 1286.53 275.375 1284.12 275.375C1279.34 275.375 1275.48 273.812 1272.55 270.688C1269.64 267.531 1268.19 263.359 1268.19 258.172C1268.19 254.016 1268.77 249.531 1269.92 244.719C1271.11 239.906 1272.72 235.906 1274.75 232.719C1276.78 229.531 1279.25 227.188 1282.16 225.688C1285.06 224.156 1288.5 223.391 1292.47 223.391C1296.25 223.391 1299.44 224.281 1302.03 226.062C1304.66 227.844 1306.34 230.141 1307.09 232.953H1307.19C1307.41 231.797 1307.8 230.141 1308.36 227.984C1308.92 225.797 1309.28 224.562 1309.44 224.281H1317.45L1316.56 228.125L1315.16 234.781L1307.61 273.547C1306.11 281.109 1303.42 286.562 1299.55 289.906C1295.67 293.25 1290.33 294.922 1283.52 294.922ZM1277.05 257.516C1277.05 261.297 1277.86 264.188 1279.48 266.188C1281.14 268.156 1283.56 269.141 1286.75 269.141C1290.12 269.141 1293.19 267.922 1295.94 265.484C1298.69 263.016 1300.81 259.641 1302.31 255.359C1303.84 251.078 1304.61 246.625 1304.61 242C1304.61 238.094 1303.61 235.062 1301.61 232.906C1299.61 230.719 1296.86 229.625 1293.36 229.625C1290.55 229.625 1288.2 230.203 1286.33 231.359C1284.45 232.516 1282.88 234.328 1281.59 236.797C1280.31 239.266 1279.23 242.562 1278.36 246.688C1277.48 250.781 1277.05 254.391 1277.05 257.516Z" fill="black"/>
</svg>
