<svg width="535" height="382" viewBox="0 0 535 382" fill="none" xmlns="http://www.w3.org/2000/svg">
<path fill-rule="evenodd" clip-rule="evenodd" d="M37.5 38.599C37.5 -1.90086 69.5 22.0986 64 38.599C61.3333 41.4324 55.1 45.399 51.5 38.599C54 31.0991 46 22.0991 45 38.599C44.4498 47.6772 50.33 55.1333 57.5 60.4956C80.7 34.0133 96 20.0986 101.5 17.0988C128 -5.40053 164 -0.400132 174 8.59896C187.89 21.0986 199.5 53.0986 181 76.0992C160.551 101.522 146.667 88.7655 142 79.5989C121.2 84.3989 117.833 70.9325 119.5 63.5992C115.289 64.5711 114.645 65.3331 113.491 66.7011C112.863 67.4445 112.084 68.367 110.5 69.5993C99.3005 74.5479 77.9605 77.0383 62 72.5986C31.5 112.358 -16.7 199.799 26.5 230.599C31 236.432 63.4 237.899 97 217.099L82 228.599C45 250.099 0.999981 253.64 1 188.599C1.00001 142.599 40 82.0986 51.9581 67.5106C43.3628 61.8796 37.5 52.6875 37.5 38.599ZM76.5 69.5993L76.7529 69.6543C81.499 70.69 92.214 73.028 120.5 58.0992C123.3 35.6992 140.5 31.5988 144 34.5992C145.688 45.5725 133.007 56.4276 124 61.4497C124.167 70.3327 128.7 83.6986 145.5 66.0986C146.833 65.0988 149.2 64.3993 148 69.5993C146.667 79.599 157 93.0986 174 72.5986C199.601 41.7266 174 14.5986 158 11.5986C150 9.09857 132 9.63758 110.5 25.5986C97.3333 35.3732 71.5 56.8269 68 67.5106C69.9306 68.2953 72.9915 68.8995 75.0868 69.313C75.6371 69.4217 76.1209 69.5171 76.5 69.5993ZM123 56.8269C127.524 54.4812 140.5 45.5992 140.5 38.599C139 36.0992 128.2 39.8091 123 56.8269Z" fill="black"/>
<path d="M119.5 63.5992C117.833 70.9325 121.2 84.3989 142 79.5989C146.667 88.7655 160.551 101.522 181 76.0992C199.5 53.0986 187.89 21.0986 174 8.59896C164 -0.400132 128 -5.40053 101.5 17.0988C96 20.0986 80.7 34.0133 57.5 60.4956M119.5 63.5992C120.799 63.1056 122.337 62.3771 124 61.4497M119.5 63.5992C115.289 64.5711 114.645 65.3331 113.491 66.7011C112.863 67.4445 112.084 68.367 110.5 69.5993C99.3005 74.5479 77.9605 77.0383 62 72.5986M76.5 69.5993C76.5824 69.6171 76.6666 69.6355 76.7529 69.6543M76.5 69.5993C76.1209 69.5171 75.6371 69.4217 75.0868 69.313C72.9915 68.8995 69.9306 68.2953 68 67.5106M76.5 69.5993L76.7529 69.6543M120.5 58.0992C123.3 35.6992 140.5 31.5988 144 34.5992C145.688 45.5725 133.007 56.4276 124 61.4497M120.5 58.0992C121.198 57.7306 122.043 57.3231 123 56.8269M120.5 58.0992C92.214 73.028 81.499 70.69 76.7529 69.6543M123 56.8269C127.524 54.4812 140.5 45.5992 140.5 38.599C139 36.0992 128.2 39.8091 123 56.8269ZM124 61.4497C124.167 70.3327 128.7 83.6986 145.5 66.0986C146.833 65.0988 149.2 64.3993 148 69.5993C146.667 79.599 157 93.0986 174 72.5986C199.601 41.7266 174 14.5986 158 11.5986C150 9.09857 132 9.63758 110.5 25.5986C97.3333 35.3732 71.5 56.8269 68 67.5106M57.5 60.4956C50.33 55.1333 44.4498 47.6772 45 38.599C46 22.0991 54 31.0991 51.5 38.599C55.1 45.399 61.3333 41.4324 64 38.599C69.5 22.0986 37.5 -1.90086 37.5 38.599C37.5 52.6875 43.3628 61.8796 51.9581 67.5106M57.5 60.4956C57.5 60.4956 64.0431 65.9023 68 67.5106M51.9581 67.5106C40 82.0986 1.00001 142.599 1 188.599C0.999981 253.64 45 250.099 82 228.599L97 217.099C63.4 237.899 31 236.432 26.5 230.599C-16.7 199.799 31.5 112.358 62 72.5986M51.9581 67.5106C55.5675 69.8753 57.6587 71.391 62 72.5986" stroke="black"/>
<path d="M122.131 219.013C120.931 212.213 110.631 210.846 105.631 211.013C109.072 212.18 116.29 215.413 113.631 219.013H122.131Z" fill="#1A171B"/>
<path d="M20.1314 333.513C14.6316 321.013 26.6315 275.5 113.631 230.5H121C33.8689 281.5 9.3237 338.513 57.5 333.513C46.3237 341.513 24.5312 343.513 20.1314 333.513Z" fill="#1A171B"/>
<path d="M122.131 219.013C120.931 212.213 110.631 210.846 105.631 211.013C109.072 212.18 116.29 215.413 113.631 219.013H122.131Z" stroke="black"/>
<path d="M20.1314 333.513C14.6316 321.013 26.6315 275.5 113.631 230.5H121C33.8689 281.5 9.3237 338.513 57.5 333.513C46.3237 341.513 24.5312 343.513 20.1314 333.513Z" stroke="black"/>
<path d="M147.25 173.508C146.742 175.305 146.117 177.668 145.375 180.598C144.633 183.527 143.266 189.836 141.273 199.523L137.582 217.805C137.426 218.586 137.348 219.348 137.348 220.09C137.348 221.77 137.953 222.922 139.164 223.547C140.414 224.133 142.641 224.387 145.844 224.309L145.668 226.594C140.59 228.234 136.84 229.055 134.418 229.055C132.191 229.055 130.395 228.391 129.027 227.062C127.699 225.734 127.035 223.801 127.035 221.262C127.035 220.871 127.055 220.246 127.094 219.387C123.188 222.824 119.848 225.344 117.074 226.945C114.301 228.508 112.348 229.289 111.215 229.289C106.215 229.289 102.27 227.375 99.3789 223.547C96.4883 219.68 95.043 214.895 95.043 209.191C95.043 198.996 98.1094 190.422 104.242 183.469C110.375 176.477 118.129 172.98 127.504 172.98C131.098 172.98 135.219 173.703 139.867 175.148C141.781 174.719 144.027 174.016 146.605 173.039L147.25 173.508ZM135.004 180.012C132.152 178.371 129.359 177.551 126.625 177.551C120.883 177.551 116.02 180.559 112.035 186.574C108.051 192.59 106.059 199.23 106.059 206.496C106.059 210.676 106.82 214.211 108.344 217.102C109.906 219.992 112.094 221.438 114.906 221.438C115.805 221.438 117.348 220.91 119.535 219.855C121.723 218.801 124.516 217.004 127.914 214.465L135.004 180.012ZM178.539 180.363C176.938 186.887 175.551 192.746 174.379 197.941C173.246 203.098 172.25 207.668 171.391 211.652C170.922 213.957 170.688 215.734 170.688 216.984C170.688 218.938 171.332 220.422 172.621 221.438C173.949 222.453 175.941 222.961 178.598 222.961C181.059 222.961 184.203 222.512 188.031 221.613L188.383 224.25C185.609 225.734 182.582 226.906 179.301 227.766C176.059 228.625 173.051 229.055 170.277 229.055C166.879 229.055 164.281 228.273 162.484 226.711C160.727 225.109 159.848 222.785 159.848 219.738C159.848 218.527 160.023 216.926 160.375 214.934C161.078 211.223 162.055 206.516 163.305 200.812C164.555 195.109 166.117 188.234 167.992 180.188L160.199 178.43L160.316 175.91L169.926 175.09L176.195 160.441C178.188 159.973 180.375 159.387 182.758 158.684L183.227 159.094C181.977 164.328 180.746 169.66 179.535 175.09H196.117L194.945 180.363H178.539ZM198.695 228.293L215.277 147.609L206.488 146.086V144.035C213.168 142.785 219.926 141.359 226.762 139.758L227.23 140.461C226.527 143.391 225.688 147.16 224.711 151.77C223.773 156.34 222.758 161.34 221.664 166.77L218.793 180.188C226.449 175.383 233.266 172.98 239.242 172.98C243.383 172.98 246.547 174.074 248.734 176.262C250.961 178.449 252.074 181.418 252.074 185.168C252.074 186.926 251.879 188.723 251.488 190.559L245.453 218.391C245.375 218.82 245.316 219.211 245.277 219.562C245.238 219.914 245.219 220.227 245.219 220.5C245.219 222.062 245.863 223.098 247.152 223.605C248.441 224.074 250.629 224.309 253.715 224.309L253.539 226.594C248.539 228.234 244.594 229.055 241.703 229.055C239.438 229.055 237.699 228.508 236.488 227.414C235.277 226.281 234.672 224.543 234.672 222.199C234.672 221.105 234.848 219.738 235.199 218.098L240.707 192.727C241.098 191.086 241.293 189.543 241.293 188.098C241.293 185.637 240.668 183.723 239.418 182.355C238.168 180.988 236.078 180.305 233.148 180.305C228.422 180.305 223.324 181.906 217.855 185.109L209.066 227.707L198.695 228.293ZM275.453 202.453C275.297 203.82 275.219 205.129 275.219 206.379C275.219 211.418 276.449 215.305 278.91 218.039C281.371 220.734 284.848 222.082 289.34 222.082C294.457 222.082 299.691 220.637 305.043 217.746L306.332 219.797C303.676 222.648 300.277 224.953 296.137 226.711C292.035 228.43 287.953 229.289 283.891 229.289C277.992 229.289 273.227 227.316 269.594 223.371C266 219.387 264.203 214.25 264.203 207.961C264.203 204.836 264.574 201.809 265.316 198.879C266.098 195.949 267.172 193.195 268.539 190.617C269.945 188 271.605 185.617 273.52 183.469C275.473 181.32 277.641 179.465 280.023 177.902C282.445 176.34 285.043 175.129 287.816 174.27C290.59 173.41 293.5 172.98 296.547 172.98C301.352 172.98 305.023 174.016 307.562 176.086C310.141 178.117 311.43 180.793 311.43 184.113C311.391 190.051 307.738 194.523 300.473 197.531C293.246 200.5 284.906 202.141 275.453 202.453ZM276.098 198.176C284.418 197.629 290.668 196.164 294.848 193.781C299.027 191.398 301.117 188.332 301.117 184.582C301.117 182.512 300.492 180.891 299.242 179.719C297.992 178.547 296.293 177.961 294.145 177.961C290.16 177.961 286.508 179.777 283.188 183.41C279.906 187.004 277.543 191.926 276.098 198.176ZM319.34 228.293L328.48 184.055C328.793 182.375 328.949 181.32 328.949 180.891C328.949 179.836 328.5 179.094 327.602 178.664C326.703 178.234 324.398 178.02 320.688 178.02L320.863 175.793C326.098 173.996 330.258 173.098 333.344 173.098C335.297 173.098 336.82 173.586 337.914 174.562C339.047 175.5 339.613 176.828 339.613 178.547C339.613 178.82 339.574 179.367 339.496 180.188C347.465 175.383 354.477 172.98 360.531 172.98L360.824 173.391C359.574 179.172 358.324 185.324 357.074 191.848L354.73 192.199C353.832 188.449 352.875 185.812 351.859 184.289C350.844 182.766 349.203 182.004 346.938 182.004C344.672 182.004 341.918 182.844 338.676 184.523L329.887 227.707L319.34 228.293ZM377.875 218.391C377.68 219.172 377.582 219.875 377.582 220.5C377.582 222.062 378.227 223.098 379.516 223.605C380.805 224.074 382.992 224.309 386.078 224.309L385.902 226.594C380.824 228.234 376.879 229.055 374.066 229.055C371.879 229.055 370.16 228.488 368.91 227.355C367.699 226.223 367.094 224.504 367.094 222.199C367.094 221.105 367.25 219.738 367.562 218.098L374.594 183.938C374.711 183.273 374.809 182.707 374.887 182.238C375.004 181.73 375.062 181.281 375.062 180.891C375.062 179.836 374.613 179.094 373.715 178.664C372.816 178.234 370.512 178.02 366.801 178.02L366.977 175.793C372.289 173.996 376.449 173.098 379.457 173.098C381.449 173.098 382.992 173.566 384.086 174.504C385.219 175.402 385.785 176.828 385.785 178.781C385.785 179.602 385.707 180.402 385.551 181.184L377.875 218.391ZM390.883 151.945C390.883 153.977 390.258 155.637 389.008 156.926C387.758 158.176 386.195 158.801 384.32 158.801C382.484 158.801 380.961 158.215 379.75 157.043C378.578 155.832 377.992 154.289 377.992 152.414C377.992 150.344 378.617 148.703 379.867 147.492C381.117 146.281 382.699 145.676 384.613 145.676C386.449 145.676 387.953 146.242 389.125 147.375C390.297 148.469 390.883 149.992 390.883 151.945ZM398.441 228.293L407.582 184.055C407.895 182.375 408.051 181.32 408.051 180.891C408.051 179.836 407.602 179.094 406.703 178.664C405.805 178.234 403.5 178.02 399.789 178.02L399.965 175.793C405.199 173.996 409.359 173.098 412.445 173.098C414.398 173.098 415.922 173.586 417.016 174.562C418.148 175.5 418.715 176.828 418.715 178.547C418.715 179.016 418.676 179.562 418.598 180.188C426.215 175.383 433.012 172.98 438.988 172.98C443.129 172.98 446.312 174.074 448.539 176.262C450.766 178.449 451.879 181.418 451.879 185.168C451.879 186.926 451.664 188.723 451.234 190.559L445.199 218.391C445.121 218.82 445.062 219.211 445.023 219.562C444.984 219.914 444.965 220.227 444.965 220.5C444.965 222.062 445.609 223.098 446.898 223.605C448.188 224.074 450.375 224.309 453.461 224.309L453.285 226.594C448.324 228.234 444.359 229.055 441.391 229.055C439.125 229.055 437.367 228.508 436.117 227.414C434.906 226.281 434.301 224.543 434.301 222.199C434.301 221.105 434.457 219.738 434.77 218.098L440.512 192.727C440.863 191.047 441.039 189.484 441.039 188.039C441.039 185.578 440.414 183.684 439.164 182.355C437.914 180.988 435.824 180.305 432.895 180.305C428.207 180.305 423.129 181.906 417.66 185.109L408.988 227.707L398.441 228.293ZM475.141 202.453C474.984 203.82 474.906 205.129 474.906 206.379C474.906 211.418 476.137 215.305 478.598 218.039C481.059 220.734 484.535 222.082 489.027 222.082C494.145 222.082 499.379 220.637 504.73 217.746L506.02 219.797C503.363 222.648 499.965 224.953 495.824 226.711C491.723 228.43 487.641 229.289 483.578 229.289C477.68 229.289 472.914 227.316 469.281 223.371C465.688 219.387 463.891 214.25 463.891 207.961C463.891 204.836 464.262 201.809 465.004 198.879C465.785 195.949 466.859 193.195 468.227 190.617C469.633 188 471.293 185.617 473.207 183.469C475.16 181.32 477.328 179.465 479.711 177.902C482.133 176.34 484.73 175.129 487.504 174.27C490.277 173.41 493.188 172.98 496.234 172.98C501.039 172.98 504.711 174.016 507.25 176.086C509.828 178.117 511.117 180.793 511.117 184.113C511.078 190.051 507.426 194.523 500.16 197.531C492.934 200.5 484.594 202.141 475.141 202.453ZM475.785 198.176C484.105 197.629 490.355 196.164 494.535 193.781C498.715 191.398 500.805 188.332 500.805 184.582C500.805 182.512 500.18 180.891 498.93 179.719C497.68 178.547 495.98 177.961 493.832 177.961C489.848 177.961 486.195 179.777 482.875 183.41C479.594 187.004 477.23 191.926 475.785 198.176Z" fill="black"/>
<path d="M85.6221 356.88C75.8109 356.88 68.0228 354.176 62.2578 348.77C56.4928 343.363 53.6104 335.718 53.6104 325.835C53.6104 312.658 57.8714 301.45 66.3936 292.212C74.9515 282.938 85.4251 278.301 97.8145 278.301C107.626 278.301 115.414 280.986 121.179 286.357C126.979 291.729 129.88 299.391 129.88 309.346C129.88 322.63 125.601 333.874 117.043 343.076C108.521 352.279 98.0472 356.88 85.6221 356.88ZM118.332 307.896C118.332 299.982 116.381 293.787 112.478 289.312C108.575 284.836 103.329 282.598 96.7402 282.598C86.8932 282.598 79.1589 286.841 73.5371 295.327C67.9154 303.813 65.1045 314.448 65.1045 327.231C65.1045 335.073 67.0202 341.268 70.8516 345.815C74.7188 350.327 80.0003 352.583 86.6963 352.583C96.5433 352.583 104.278 348.376 109.899 339.961C115.521 331.51 118.332 320.822 118.332 307.896ZM184.611 305.049C184.146 306.696 183.573 308.862 182.893 311.548C182.212 314.233 180.959 320.016 179.133 328.896L175.749 345.654C175.606 346.37 175.534 347.069 175.534 347.749C175.534 349.289 176.089 350.345 177.199 350.918C178.345 351.455 180.386 351.688 183.322 351.616L183.161 353.711C178.506 355.215 175.069 355.967 172.849 355.967C170.808 355.967 169.16 355.358 167.907 354.141C166.69 352.923 166.081 351.151 166.081 348.823C166.081 348.465 166.099 347.892 166.135 347.104C162.554 350.256 159.493 352.565 156.95 354.033C154.408 355.465 152.618 356.182 151.579 356.182C146.996 356.182 143.379 354.427 140.729 350.918C138.08 347.373 136.755 342.987 136.755 337.759C136.755 328.413 139.566 320.553 145.188 314.18C150.809 307.77 157.917 304.565 166.511 304.565C169.805 304.565 173.583 305.228 177.844 306.553C179.598 306.159 181.657 305.514 184.021 304.619L184.611 305.049ZM173.386 311.011C170.772 309.507 168.212 308.755 165.705 308.755C160.441 308.755 155.983 311.512 152.331 317.026C148.679 322.541 146.853 328.628 146.853 335.288C146.853 339.119 147.551 342.36 148.947 345.01C150.38 347.66 152.385 348.984 154.963 348.984C155.786 348.984 157.201 348.501 159.206 347.534C161.211 346.567 163.771 344.92 166.887 342.593L173.386 311.011ZM213.293 311.333C211.825 317.313 210.554 322.684 209.479 327.446C208.441 332.173 207.528 336.362 206.74 340.015C206.311 342.127 206.096 343.757 206.096 344.902C206.096 346.693 206.687 348.053 207.868 348.984C209.086 349.915 210.912 350.381 213.347 350.381C215.603 350.381 218.485 349.969 221.994 349.146L222.316 351.562C219.774 352.923 216.999 353.997 213.991 354.785C211.019 355.573 208.262 355.967 205.72 355.967C202.604 355.967 200.223 355.251 198.576 353.818C196.965 352.35 196.159 350.22 196.159 347.427C196.159 346.317 196.32 344.849 196.643 343.022C197.287 339.621 198.182 335.306 199.328 330.078C200.474 324.85 201.906 318.548 203.625 311.172L196.481 309.561L196.589 307.251L205.397 306.499L211.145 293.071C212.971 292.642 214.976 292.104 217.16 291.46L217.59 291.836C216.444 296.634 215.316 301.522 214.206 306.499H229.406L228.332 311.333H213.293ZM268.293 345.225L269.475 347.051C266.861 349.844 263.728 352.064 260.075 353.711C256.459 355.322 252.932 356.128 249.494 356.128C244.087 356.128 239.629 354.302 236.12 350.649C232.647 346.961 230.91 341.966 230.91 335.664C230.91 326.855 233.936 319.479 239.987 313.535C246.075 307.591 253.397 304.619 261.955 304.619C266.61 304.619 271.068 305.568 275.329 307.466C274.004 312.515 272.912 317.331 272.053 321.914L269.958 322.236L265.876 309.722C264.372 309.292 262.797 309.077 261.149 309.077C255.277 309.077 250.443 311.494 246.647 316.328C242.888 321.162 241.008 327.052 241.008 333.999C241.008 338.976 242.189 342.826 244.553 345.547C246.952 348.232 250.336 349.575 254.704 349.575C258.679 349.575 263.208 348.125 268.293 345.225ZM280.109 355.269L295.31 281.309L287.253 279.912V278.032C293.376 276.886 299.571 275.579 305.837 274.111L306.267 274.756C305.622 277.441 304.852 280.897 303.957 285.122C303.098 289.312 302.167 293.895 301.164 298.872L298.532 311.172C305.55 306.768 311.799 304.565 317.277 304.565C321.073 304.565 323.973 305.568 325.979 307.573C328.02 309.578 329.04 312.3 329.04 315.737C329.04 317.349 328.861 318.996 328.503 320.679L322.971 346.191C322.899 346.585 322.845 346.943 322.81 347.266C322.774 347.588 322.756 347.874 322.756 348.125C322.756 349.557 323.347 350.506 324.528 350.972C325.71 351.401 327.715 351.616 330.544 351.616L330.383 353.711C325.799 355.215 322.183 355.967 319.533 355.967C317.456 355.967 315.863 355.465 314.753 354.463C313.643 353.424 313.088 351.831 313.088 349.683C313.088 348.68 313.249 347.427 313.571 345.923L318.62 322.666C318.978 321.162 319.157 319.748 319.157 318.423C319.157 316.167 318.584 314.412 317.438 313.159C316.293 311.906 314.377 311.279 311.691 311.279C307.359 311.279 302.686 312.747 297.673 315.684L289.616 354.731L280.109 355.269ZM352.619 346.191C352.44 346.908 352.351 347.552 352.351 348.125C352.351 349.557 352.941 350.506 354.123 350.972C355.305 351.401 357.31 351.616 360.139 351.616L359.978 353.711C355.323 355.215 351.706 355.967 349.128 355.967C347.123 355.967 345.547 355.448 344.401 354.409C343.291 353.371 342.736 351.795 342.736 349.683C342.736 348.68 342.88 347.427 343.166 345.923L349.611 314.609C349.719 314.001 349.808 313.481 349.88 313.052C349.987 312.586 350.041 312.174 350.041 311.816C350.041 310.85 349.629 310.169 348.806 309.775C347.982 309.382 345.869 309.185 342.468 309.185L342.629 307.144C347.499 305.496 351.312 304.673 354.069 304.673C355.896 304.673 357.31 305.103 358.312 305.962C359.351 306.785 359.87 308.092 359.87 309.883C359.87 310.635 359.799 311.369 359.655 312.085L352.619 346.191ZM364.543 285.283C364.543 287.145 363.97 288.667 362.824 289.849C361.678 290.994 360.246 291.567 358.527 291.567C356.844 291.567 355.448 291.03 354.338 289.956C353.264 288.846 352.727 287.432 352.727 285.713C352.727 283.815 353.299 282.311 354.445 281.201C355.591 280.091 357.041 279.536 358.796 279.536C360.479 279.536 361.857 280.055 362.932 281.094C364.006 282.096 364.543 283.493 364.543 285.283ZM371.472 355.269L379.851 314.717C380.137 313.177 380.28 312.21 380.28 311.816C380.28 310.85 379.868 310.169 379.045 309.775C378.221 309.382 376.109 309.185 372.707 309.185L372.868 307.144C377.666 305.496 381.48 304.673 384.309 304.673C386.099 304.673 387.495 305.12 388.498 306.016C389.536 306.875 390.056 308.092 390.056 309.668C390.056 310.098 390.02 310.599 389.948 311.172C396.931 306.768 403.161 304.565 408.64 304.565C412.435 304.565 415.354 305.568 417.395 307.573C419.436 309.578 420.456 312.3 420.456 315.737C420.456 317.349 420.259 318.996 419.865 320.679L414.333 346.191C414.261 346.585 414.208 346.943 414.172 347.266C414.136 347.588 414.118 347.874 414.118 348.125C414.118 349.557 414.709 350.506 415.891 350.972C417.072 351.401 419.077 351.616 421.906 351.616L421.745 353.711C417.198 355.215 413.563 355.967 410.842 355.967C408.765 355.967 407.154 355.465 406.008 354.463C404.898 353.424 404.343 351.831 404.343 349.683C404.343 348.68 404.486 347.427 404.772 345.923L410.036 322.666C410.358 321.126 410.52 319.694 410.52 318.369C410.52 316.113 409.947 314.377 408.801 313.159C407.655 311.906 405.739 311.279 403.054 311.279C398.757 311.279 394.102 312.747 389.089 315.684L381.14 354.731L371.472 355.269ZM461.169 347.373C457.552 350.238 454.473 352.332 451.931 353.657C449.424 354.982 447.634 355.645 446.56 355.645C442.084 355.645 438.449 353.926 435.656 350.488C432.863 347.015 431.467 342.7 431.467 337.544C431.467 328.198 434.296 320.374 439.953 314.072C445.646 307.734 452.862 304.565 461.599 304.565C464.893 304.565 468.688 305.228 472.985 306.553C473.845 306.374 474.794 306.123 475.832 305.801C476.87 305.443 477.998 305.049 479.216 304.619L479.753 305.049C479.538 305.872 479.287 306.839 479.001 307.949C478.715 309.023 478.428 310.241 478.142 311.602C477.819 312.891 477.318 314.985 476.638 317.886C475.993 320.786 475.205 324.456 474.274 328.896L471.159 344.043C469.799 350.632 468.187 356.289 466.325 361.016C464.463 365.742 462.315 369.645 459.88 372.725C457.445 375.804 454.706 378.06 451.662 379.492C448.618 380.96 445.217 381.694 441.457 381.694C437.053 381.694 431.914 380.781 426.042 378.955C426.579 375.589 427.403 372.188 428.513 368.75L428.889 368.589C436.301 373.494 441.833 375.947 445.485 375.947C447.347 375.947 448.959 375.5 450.319 374.604C451.716 373.745 452.987 372.367 454.133 370.469C455.314 368.607 456.389 366.172 457.355 363.164C458.358 360.192 459.289 356.576 460.148 352.314L461.169 347.373ZM468.635 311.011C466.092 309.507 463.496 308.755 460.847 308.755C455.476 308.755 450.91 311.476 447.15 316.919C443.426 322.326 441.564 328.306 441.564 334.858C441.564 338.797 442.281 342.038 443.713 344.58C445.145 347.122 447.204 348.394 449.89 348.394C452.181 348.394 456.281 346.46 462.189 342.593L468.635 311.011Z" fill="black"/>
</svg>
