<svg width="1505" height="620" viewBox="0 0 1505 620" fill="none" xmlns="http://www.w3.org/2000/svg">
<rect width="1505" height="620" fill="white"/>
<path d="M577.006 236.169H503.006C512.606 166.969 482.006 128.002 465.506 117.169C414.306 71.9689 325.173 92.0023 287.006 107.669C285.406 104.869 310.673 91.8356 323.506 85.6689C360.339 72.3355 450.206 53.6689 515.006 85.6689C579.806 117.669 583.339 199.336 577.006 236.169Z" fill="#DA0000"/>
<path d="M291.506 146.169C222.506 178.169 171.339 254.169 156.006 292.169C142.839 325.669 131.506 400.069 191.506 429.669C251.506 459.269 332.506 427.336 365.506 407.669C325.339 438.336 227.906 490.469 159.506 453.669C91.106 416.869 93.6726 344.336 103.506 312.669C112.506 273.169 154.006 211.669 166.006 201.169C184.506 179.836 233.506 137.169 269.506 124.169C287.673 115.169 334.006 100.169 363.006 100.169C394.206 102.569 413.339 107.502 419.006 109.669C435.006 115.787 465.006 140.669 465.006 150.669C423.006 109.669 348.509 119.733 291.506 146.169Z" fill="#9A9A9A"/>
<path d="M498.006 389.669H412.006C405.606 398.069 391.339 410.169 385.006 415.169C355.006 440.002 276.706 487.869 203.506 480.669C130.306 473.469 100.006 421.336 94.006 396.169C90.806 401.369 95.6726 434.002 102.506 446.669C142.506 517.869 237.839 527.336 280.506 523.169C286.429 521.962 332.006 513.646 368.506 492.669C412.006 467.669 477.173 416.502 498.006 389.669Z" fill="#DA0000"/>
<path d="M278.656 327.203C274.719 333.078 270.25 337.344 265.25 340C260.25 342.625 254.438 343.938 247.812 343.938C242.156 343.938 237.234 342.812 233.047 340.562C228.891 338.281 225.719 335.047 223.531 330.859C221.375 326.672 220.297 321.828 220.297 316.328C220.297 308.641 221.938 301.688 225.219 295.469C228.5 289.25 233.047 284.453 238.859 281.078C244.703 277.672 251.219 275.969 258.406 275.969C265.188 275.969 270.906 277.391 275.562 280.234C280.25 283.047 283.344 287.016 284.844 292.141L276.406 294.719C275.281 291.219 273.094 288.438 269.844 286.375C266.625 284.312 262.656 283.281 257.938 283.281C252.188 283.281 247.125 284.672 242.75 287.453C238.375 290.203 235.016 294.094 232.672 299.125C230.328 304.125 229.156 309.906 229.156 316.469C229.156 322.719 230.859 327.656 234.266 331.281C237.672 334.875 242.391 336.672 248.422 336.672C253.047 336.672 257.359 335.531 261.359 333.25C265.359 330.938 268.891 327.531 271.953 323.031L278.656 327.203ZM327.828 343.469C324.922 343.469 322.797 342.875 321.453 341.688C320.141 340.469 319.484 338.672 319.484 336.297L319.719 333.297H319.438C316.844 337.234 314.156 340 311.375 341.594C308.594 343.156 305.234 343.938 301.297 343.938C296.922 343.938 293.359 342.625 290.609 340C287.891 337.375 286.531 334.031 286.531 329.969C286.531 324.188 288.594 319.812 292.719 316.844C296.875 313.875 303.484 312.328 312.547 312.203L323.422 312.062C324.016 309 324.312 307.016 324.312 306.109C324.312 303.266 323.484 301.172 321.828 299.828C320.172 298.453 317.875 297.766 314.938 297.766C311.219 297.766 308.406 298.438 306.5 299.781C304.594 301.094 303.219 303.109 302.375 305.828L294.031 304.469C295.438 299.875 297.875 296.547 301.344 294.484C304.844 292.391 309.531 291.344 315.406 291.344C320.75 291.344 324.969 292.594 328.062 295.094C331.188 297.594 332.75 300.953 332.75 305.172C332.75 307.172 332.453 309.625 331.859 312.531L328.391 330.25C328.047 331.75 327.875 333.125 327.875 334.375C327.875 336.656 329.141 337.797 331.672 337.797C332.516 337.797 333.453 337.688 334.484 337.469L333.828 342.719C331.766 343.219 329.766 343.469 327.828 343.469ZM322.297 317.875L312.969 318.062C309.25 318.156 306.328 318.5 304.203 319.094C302.078 319.656 300.422 320.391 299.234 321.297C298.078 322.172 297.156 323.297 296.469 324.672C295.812 326.016 295.484 327.656 295.484 329.594C295.484 331.938 296.234 333.844 297.734 335.312C299.266 336.781 301.234 337.516 303.641 337.516C306.672 337.516 309.406 336.875 311.844 335.594C314.281 334.281 316.297 332.578 317.891 330.484C319.484 328.391 320.531 326.141 321.031 323.734L322.297 317.875ZM350.703 343.938C348.047 343.938 345.953 343.141 344.422 341.547C342.922 339.953 342.172 337.844 342.172 335.219C342.172 333.5 342.406 331.469 342.875 329.125L348.781 298.422H342.922L344.141 292.281H350.094L355.016 280.938H360.641L358.438 292.281H367.812L366.594 298.422H357.219L351.359 328.656C350.984 330.531 350.797 332.016 350.797 333.109C350.797 335.859 352.203 337.234 355.016 337.234C356.328 337.234 357.891 337.016 359.703 336.578L358.812 342.812C355.719 343.562 353.016 343.938 350.703 343.938ZM382.484 300.953C385.078 297.359 387.672 294.875 390.266 293.5C392.891 292.094 396 291.391 399.594 291.391C404.219 291.391 407.688 292.531 410 294.812C412.344 297.094 413.516 300.391 413.516 304.703C413.516 306.703 413.188 309.266 412.531 312.391L406.578 343H398.094L404 312.766C404.562 310.016 404.844 307.672 404.844 305.734C404.844 300.516 402.047 297.906 396.453 297.906C392.516 297.906 389.047 299.406 386.047 302.406C383.047 305.406 381.047 309.469 380.047 314.594L374.516 343H366.125L379.625 273.438H388.062L384.547 291.531C383.984 294.656 383.25 297.797 382.344 300.953H382.484ZM429.969 319.422C429.781 320.516 429.641 322.281 429.547 324.719C429.547 328.875 430.578 332.062 432.641 334.281C434.734 336.5 437.875 337.609 442.062 337.609C445.094 337.609 447.844 336.859 450.312 335.359C452.781 333.859 454.703 331.812 456.078 329.219L462.547 332.172C460.266 336.266 457.359 339.25 453.828 341.125C450.328 343 446.078 343.938 441.078 343.938C434.797 343.938 429.906 342.203 426.406 338.734C422.938 335.234 421.203 330.328 421.203 324.016C421.203 317.734 422.312 312.109 424.531 307.141C426.75 302.141 429.875 298.266 433.906 295.516C437.938 292.734 442.469 291.344 447.5 291.344C453.906 291.344 458.891 292.953 462.453 296.172C466.016 299.391 467.797 303.938 467.797 309.812C467.797 313.094 467.422 316.297 466.672 319.422H429.969ZM459.219 312.953L459.406 309.578C459.406 305.703 458.391 302.734 456.359 300.672C454.359 298.609 451.469 297.578 447.688 297.578C443.5 297.578 439.969 298.922 437.094 301.609C434.25 304.266 432.25 308.047 431.094 312.953H459.219ZM505.062 299.031C503.688 298.625 502.281 298.422 500.844 298.422C497.562 298.422 494.594 300.141 491.938 303.578C489.312 307.016 487.531 311.344 486.594 316.562L481.438 343H473L480.594 304.094L481.766 297.625L482.609 292.281H490.578L488.938 302.641H489.125C491.188 298.484 493.219 295.562 495.219 293.875C497.219 292.188 499.531 291.344 502.156 291.344C503.594 291.344 505.078 291.562 506.609 292L505.062 299.031ZM516.828 281.5L518.422 273.438H526.859L525.266 281.5H516.828ZM504.922 343L514.766 292.281H523.203L513.312 343H504.922ZM558.359 343L564.266 312.766C564.828 310.016 565.109 307.672 565.109 305.734C565.109 300.516 562.312 297.906 556.719 297.906C552.781 297.906 549.312 299.406 546.312 302.406C543.312 305.406 541.312 309.469 540.312 314.594L534.781 343H526.344L534.125 303.109C534.75 300.141 535.359 296.531 535.953 292.281H543.922C543.922 292.625 543.75 293.844 543.406 295.938C543.094 298 542.828 299.672 542.609 300.953H542.75C545.344 297.359 547.938 294.875 550.531 293.5C553.156 292.094 556.266 291.391 559.859 291.391C564.484 291.391 567.953 292.531 570.266 294.812C572.609 297.094 573.781 300.391 573.781 304.703C573.781 306.703 573.453 309.266 572.797 312.391L566.844 343H558.359ZM590.188 319.422C590 320.516 589.859 322.281 589.766 324.719C589.766 328.875 590.797 332.062 592.859 334.281C594.953 336.5 598.094 337.609 602.281 337.609C605.312 337.609 608.062 336.859 610.531 335.359C613 333.859 614.922 331.812 616.297 329.219L622.766 332.172C620.484 336.266 617.578 339.25 614.047 341.125C610.547 343 606.297 343.938 601.297 343.938C595.016 343.938 590.125 342.203 586.625 338.734C583.156 335.234 581.422 330.328 581.422 324.016C581.422 317.734 582.531 312.109 584.75 307.141C586.969 302.141 590.094 298.266 594.125 295.516C598.156 292.734 602.688 291.344 607.719 291.344C614.125 291.344 619.109 292.953 622.672 296.172C626.234 299.391 628.016 303.938 628.016 309.812C628.016 313.094 627.641 316.297 626.891 319.422H590.188ZM619.438 312.953L619.625 309.578C619.625 305.703 618.609 302.734 616.578 300.672C614.578 298.609 611.688 297.578 607.906 297.578C603.719 297.578 600.188 298.922 597.312 301.609C594.469 304.266 592.469 308.047 591.312 312.953H619.438ZM722 327.203C718.062 333.078 713.594 337.344 708.594 340C703.594 342.625 697.781 343.938 691.156 343.938C685.5 343.938 680.578 342.812 676.391 340.562C672.234 338.281 669.062 335.047 666.875 330.859C664.719 326.672 663.641 321.828 663.641 316.328C663.641 308.641 665.281 301.688 668.562 295.469C671.844 289.25 676.391 284.453 682.203 281.078C688.047 277.672 694.562 275.969 701.75 275.969C708.531 275.969 714.25 277.391 718.906 280.234C723.594 283.047 726.688 287.016 728.188 292.141L719.75 294.719C718.625 291.219 716.438 288.438 713.188 286.375C709.969 284.312 706 283.281 701.281 283.281C695.531 283.281 690.469 284.672 686.094 287.453C681.719 290.203 678.359 294.094 676.016 299.125C673.672 304.125 672.5 309.906 672.5 316.469C672.5 322.719 674.203 327.656 677.609 331.281C681.016 334.875 685.734 336.672 691.766 336.672C696.391 336.672 700.703 335.531 704.703 333.25C708.703 330.938 712.234 327.531 715.297 323.031L722 327.203ZM778.062 310.984C778.062 315.047 777.438 319.281 776.188 323.688C774.938 328.062 773.141 331.781 770.797 334.844C768.484 337.875 765.641 340.156 762.266 341.688C758.891 343.188 755.047 343.938 750.734 343.938C744.609 343.938 739.766 342.094 736.203 338.406C732.641 334.719 730.859 329.703 730.859 323.359C730.984 316.984 732.141 311.328 734.328 306.391C736.516 301.453 739.547 297.719 743.422 295.188C747.297 292.656 752.094 291.391 757.812 291.391C764.375 291.391 769.391 293.109 772.859 296.547C776.328 299.953 778.062 304.766 778.062 310.984ZM769.344 310.984C769.344 302.047 765.469 297.578 757.719 297.578C753.5 297.578 750.109 298.672 747.547 300.859C745.016 303.016 743.047 306.297 741.641 310.703C740.234 315.109 739.531 319.375 739.531 323.5C739.531 328.125 740.531 331.656 742.531 334.094C744.531 336.5 747.438 337.703 751.25 337.703C754.469 337.703 757.047 337.172 758.984 336.109C760.953 335.016 762.672 333.328 764.141 331.047C765.609 328.734 766.797 325.797 767.703 322.234C768.641 318.672 769.188 314.922 769.344 310.984ZM800.609 292.281L794.703 322.516C794.141 325.266 793.859 327.609 793.859 329.547C793.859 334.766 796.656 337.375 802.25 337.375C806.188 337.375 809.656 335.875 812.656 332.875C815.656 329.875 817.656 325.812 818.656 320.688L824.188 292.281H832.625L824.844 332.172C824.219 335.141 823.609 338.75 823.016 343H815.047C815.047 342.656 815.203 341.453 815.516 339.391C815.859 337.297 816.141 335.609 816.359 334.328H816.219C813.625 337.922 811.016 340.422 808.391 341.828C805.797 343.203 802.703 343.891 799.109 343.891C794.484 343.891 791 342.75 788.656 340.469C786.344 338.188 785.188 334.891 785.188 330.578C785.188 328.578 785.516 326.016 786.172 322.891L792.125 292.281H800.609ZM868.25 299.031C866.875 298.625 865.469 298.422 864.031 298.422C860.75 298.422 857.781 300.141 855.125 303.578C852.5 307.016 850.719 311.344 849.781 316.562L844.625 343H836.188L843.781 304.094L844.953 297.625L845.797 292.281H853.766L852.125 302.641H852.312C854.375 298.484 856.406 295.562 858.406 293.875C860.406 292.188 862.719 291.344 865.344 291.344C866.781 291.344 868.266 291.562 869.797 292L868.25 299.031ZM900.219 299.031C898.844 298.625 897.438 298.422 896 298.422C892.719 298.422 889.75 300.141 887.094 303.578C884.469 307.016 882.688 311.344 881.75 316.562L876.594 343H868.156L875.75 304.094L876.922 297.625L877.766 292.281H885.734L884.094 302.641H884.281C886.344 298.484 888.375 295.562 890.375 293.875C892.375 292.188 894.688 291.344 897.312 291.344C898.75 291.344 900.234 291.562 901.766 292L900.219 299.031ZM910.531 319.422C910.344 320.516 910.203 322.281 910.109 324.719C910.109 328.875 911.141 332.062 913.203 334.281C915.297 336.5 918.438 337.609 922.625 337.609C925.656 337.609 928.406 336.859 930.875 335.359C933.344 333.859 935.266 331.812 936.641 329.219L943.109 332.172C940.828 336.266 937.922 339.25 934.391 341.125C930.891 343 926.641 343.938 921.641 343.938C915.359 343.938 910.469 342.203 906.969 338.734C903.5 335.234 901.766 330.328 901.766 324.016C901.766 317.734 902.875 312.109 905.094 307.141C907.312 302.141 910.438 298.266 914.469 295.516C918.5 292.734 923.031 291.344 928.062 291.344C934.469 291.344 939.453 292.953 943.016 296.172C946.578 299.391 948.359 303.938 948.359 309.812C948.359 313.094 947.984 316.297 947.234 319.422H910.531ZM939.781 312.953L939.969 309.578C939.969 305.703 938.953 302.734 936.922 300.672C934.922 298.609 932.031 297.578 928.25 297.578C924.062 297.578 920.531 298.922 917.656 301.609C914.812 304.266 912.812 308.047 911.656 312.953H939.781ZM964.859 343.938C962.203 343.938 960.109 343.141 958.578 341.547C957.078 339.953 956.328 337.844 956.328 335.219C956.328 333.5 956.562 331.469 957.031 329.125L962.938 298.422H957.078L958.297 292.281H964.25L969.172 280.938H974.797L972.594 292.281H981.969L980.75 298.422H971.375L965.516 328.656C965.141 330.531 964.953 332.016 964.953 333.109C964.953 335.859 966.359 337.234 969.172 337.234C970.484 337.234 972.047 337.016 973.859 336.578L972.969 342.812C969.875 343.562 967.172 343.938 964.859 343.938ZM1069.06 327.203C1065.12 333.078 1060.66 337.344 1055.66 340C1050.66 342.625 1044.84 343.938 1038.22 343.938C1032.56 343.938 1027.64 342.812 1023.45 340.562C1019.3 338.281 1016.12 335.047 1013.94 330.859C1011.78 326.672 1010.7 321.828 1010.7 316.328C1010.7 308.641 1012.34 301.688 1015.62 295.469C1018.91 289.25 1023.45 284.453 1029.27 281.078C1035.11 277.672 1041.62 275.969 1048.81 275.969C1055.59 275.969 1061.31 277.391 1065.97 280.234C1070.66 283.047 1073.75 287.016 1075.25 292.141L1066.81 294.719C1065.69 291.219 1063.5 288.438 1060.25 286.375C1057.03 284.312 1053.06 283.281 1048.34 283.281C1042.59 283.281 1037.53 284.672 1033.16 287.453C1028.78 290.203 1025.42 294.094 1023.08 299.125C1020.73 304.125 1019.56 309.906 1019.56 316.469C1019.56 322.719 1021.27 327.656 1024.67 331.281C1028.08 334.875 1032.8 336.672 1038.83 336.672C1043.45 336.672 1047.77 335.531 1051.77 333.25C1055.77 330.938 1059.3 327.531 1062.36 323.031L1069.06 327.203ZM1125.12 310.984C1125.12 315.047 1124.5 319.281 1123.25 323.688C1122 328.062 1120.2 331.781 1117.86 334.844C1115.55 337.875 1112.7 340.156 1109.33 341.688C1105.95 343.188 1102.11 343.938 1097.8 343.938C1091.67 343.938 1086.83 342.094 1083.27 338.406C1079.7 334.719 1077.92 329.703 1077.92 323.359C1078.05 316.984 1079.2 311.328 1081.39 306.391C1083.58 301.453 1086.61 297.719 1090.48 295.188C1094.36 292.656 1099.16 291.391 1104.88 291.391C1111.44 291.391 1116.45 293.109 1119.92 296.547C1123.39 299.953 1125.12 304.766 1125.12 310.984ZM1116.41 310.984C1116.41 302.047 1112.53 297.578 1104.78 297.578C1100.56 297.578 1097.17 298.672 1094.61 300.859C1092.08 303.016 1090.11 306.297 1088.7 310.703C1087.3 315.109 1086.59 319.375 1086.59 323.5C1086.59 328.125 1087.59 331.656 1089.59 334.094C1091.59 336.5 1094.5 337.703 1098.31 337.703C1101.53 337.703 1104.11 337.172 1106.05 336.109C1108.02 335.016 1109.73 333.328 1111.2 331.047C1112.67 328.734 1113.86 325.797 1114.77 322.234C1115.7 318.672 1116.25 314.922 1116.41 310.984ZM1171.67 343.469C1168.77 343.469 1166.64 342.875 1165.3 341.688C1163.98 340.469 1163.33 338.672 1163.33 336.297L1163.56 333.297H1163.28C1160.69 337.234 1158 340 1155.22 341.594C1152.44 343.156 1149.08 343.938 1145.14 343.938C1140.77 343.938 1137.2 342.625 1134.45 340C1131.73 337.375 1130.38 334.031 1130.38 329.969C1130.38 324.188 1132.44 319.812 1136.56 316.844C1140.72 313.875 1147.33 312.328 1156.39 312.203L1167.27 312.062C1167.86 309 1168.16 307.016 1168.16 306.109C1168.16 303.266 1167.33 301.172 1165.67 299.828C1164.02 298.453 1161.72 297.766 1158.78 297.766C1155.06 297.766 1152.25 298.438 1150.34 299.781C1148.44 301.094 1147.06 303.109 1146.22 305.828L1137.88 304.469C1139.28 299.875 1141.72 296.547 1145.19 294.484C1148.69 292.391 1153.38 291.344 1159.25 291.344C1164.59 291.344 1168.81 292.594 1171.91 295.094C1175.03 297.594 1176.59 300.953 1176.59 305.172C1176.59 307.172 1176.3 309.625 1175.7 312.531L1172.23 330.25C1171.89 331.75 1171.72 333.125 1171.72 334.375C1171.72 336.656 1172.98 337.797 1175.52 337.797C1176.36 337.797 1177.3 337.688 1178.33 337.469L1177.67 342.719C1175.61 343.219 1173.61 343.469 1171.67 343.469ZM1166.14 317.875L1156.81 318.062C1153.09 318.156 1150.17 318.5 1148.05 319.094C1145.92 319.656 1144.27 320.391 1143.08 321.297C1141.92 322.172 1141 323.297 1140.31 324.672C1139.66 326.016 1139.33 327.656 1139.33 329.594C1139.33 331.938 1140.08 333.844 1141.58 335.312C1143.11 336.781 1145.08 337.516 1147.48 337.516C1150.52 337.516 1153.25 336.875 1155.69 335.594C1158.12 334.281 1160.14 332.578 1161.73 330.484C1163.33 328.391 1164.38 326.141 1164.88 323.734L1166.14 317.875ZM1203.64 337.281C1210.05 337.281 1214.56 333.688 1217.19 326.5L1224.5 328.797C1220.72 338.891 1213.7 343.938 1203.45 343.938C1197.45 343.938 1192.84 342.234 1189.62 338.828C1186.41 335.422 1184.8 330.641 1184.8 324.484C1184.8 318.234 1185.92 312.422 1188.17 307.047C1190.45 301.672 1193.45 297.719 1197.17 295.188C1200.92 292.625 1205.52 291.344 1210.95 291.344C1216.23 291.344 1220.41 292.672 1223.47 295.328C1226.56 297.984 1228.27 301.625 1228.58 306.25L1220.28 307.422C1220.09 304.391 1219.16 302.062 1217.47 300.438C1215.78 298.781 1213.52 297.953 1210.67 297.953C1206.73 297.953 1203.55 299.016 1201.11 301.141C1198.67 303.234 1196.78 306.578 1195.44 311.172C1194.09 315.766 1193.42 320.297 1193.42 324.766C1193.42 333.109 1196.83 337.281 1203.64 337.281ZM1247.61 300.953C1250.2 297.359 1252.8 294.875 1255.39 293.5C1258.02 292.094 1261.12 291.391 1264.72 291.391C1269.34 291.391 1272.81 292.531 1275.12 294.812C1277.47 297.094 1278.64 300.391 1278.64 304.703C1278.64 306.703 1278.31 309.266 1277.66 312.391L1271.7 343H1263.22L1269.12 312.766C1269.69 310.016 1269.97 307.672 1269.97 305.734C1269.97 300.516 1267.17 297.906 1261.58 297.906C1257.64 297.906 1254.17 299.406 1251.17 302.406C1248.17 305.406 1246.17 309.469 1245.17 314.594L1239.64 343H1231.25L1244.75 273.438H1253.19L1249.67 291.531C1249.11 294.656 1248.38 297.797 1247.47 300.953H1247.61ZM1296.55 281.5L1298.14 273.438H1306.58L1304.98 281.5H1296.55ZM1284.64 343L1294.48 292.281H1302.92L1293.03 343H1284.64ZM1338.08 343L1343.98 312.766C1344.55 310.016 1344.83 307.672 1344.83 305.734C1344.83 300.516 1342.03 297.906 1336.44 297.906C1332.5 297.906 1329.03 299.406 1326.03 302.406C1323.03 305.406 1321.03 309.469 1320.03 314.594L1314.5 343H1306.06L1313.84 303.109C1314.47 300.141 1315.08 296.531 1315.67 292.281H1323.64C1323.64 292.625 1323.47 293.844 1323.12 295.938C1322.81 298 1322.55 299.672 1322.33 300.953H1322.47C1325.06 297.359 1327.66 294.875 1330.25 293.5C1332.88 292.094 1335.98 291.391 1339.58 291.391C1344.2 291.391 1347.67 292.531 1349.98 294.812C1352.33 297.094 1353.5 300.391 1353.5 304.703C1353.5 306.703 1353.17 309.266 1352.52 312.391L1346.56 343H1338.08ZM1376.52 362.922C1365.92 362.922 1359.78 358.984 1358.09 351.109L1365.73 349.141C1366.83 354.047 1370.48 356.5 1376.7 356.5C1381.14 356.5 1384.58 355.344 1387.02 353.031C1389.45 350.75 1391.17 346.984 1392.17 341.734L1393.77 333.578H1393.67C1391.73 336.359 1390.02 338.359 1388.52 339.578C1387.05 340.797 1385.38 341.734 1383.5 342.391C1381.66 343.047 1379.53 343.375 1377.12 343.375C1372.34 343.375 1368.48 341.812 1365.55 338.688C1362.64 335.531 1361.19 331.359 1361.19 326.172C1361.19 322.016 1361.77 317.531 1362.92 312.719C1364.11 307.906 1365.72 303.906 1367.75 300.719C1369.78 297.531 1372.25 295.188 1375.16 293.688C1378.06 292.156 1381.5 291.391 1385.47 291.391C1389.25 291.391 1392.44 292.281 1395.03 294.062C1397.66 295.844 1399.34 298.141 1400.09 300.953H1400.19C1400.41 299.797 1400.8 298.141 1401.36 295.984C1401.92 293.797 1402.28 292.562 1402.44 292.281H1410.45L1409.56 296.125L1408.16 302.781L1400.61 341.547C1399.11 349.109 1396.42 354.562 1392.55 357.906C1388.67 361.25 1383.33 362.922 1376.52 362.922ZM1370.05 325.516C1370.05 329.297 1370.86 332.188 1372.48 334.188C1374.14 336.156 1376.56 337.141 1379.75 337.141C1383.12 337.141 1386.19 335.922 1388.94 333.484C1391.69 331.016 1393.81 327.641 1395.31 323.359C1396.84 319.078 1397.61 314.625 1397.61 310C1397.61 306.094 1396.61 303.062 1394.61 300.906C1392.61 298.719 1389.86 297.625 1386.36 297.625C1383.55 297.625 1381.2 298.203 1379.33 299.359C1377.45 300.516 1375.88 302.328 1374.59 304.797C1373.31 307.266 1372.23 310.562 1371.36 314.688C1370.48 318.781 1370.05 322.391 1370.05 325.516Z" fill="black"/>
</svg>
