<svg width="530" height="530" viewBox="0 0 530 530" fill="none" xmlns="http://www.w3.org/2000/svg">
<g filter="url(#filter0_d_302:5)">
<path d="M15 90C15 48.5786 48.5786 15 90 15H440C481.421 15 515 48.5786 515 90V440C515 481.421 481.421 515 440 515H90C48.5786 515 15 481.421 15 440V90Z" fill="#4FB5FF"/>
<path d="M120.504 345.864C112.248 345.864 105.72 343.464 100.92 338.664C96.1202 333.864 93.7202 327.336 93.7202 319.08V170.184C95.8322 169.8 99.1922 169.32 103.8 168.744C108.408 167.976 112.824 167.592 117.048 167.592C121.464 167.592 125.304 167.976 128.568 168.744C132.024 169.32 134.904 170.472 137.208 172.2C139.512 173.928 141.24 176.328 142.392 179.4C143.544 182.472 144.12 186.504 144.12 191.496V305.256H210.072C211.416 307.368 212.664 310.248 213.816 313.896C214.968 317.352 215.544 321 215.544 324.84C215.544 332.52 213.912 337.992 210.648 341.256C207.384 344.328 203.064 345.864 197.688 345.864H120.504Z" fill="white"/>
<path d="M364.861 302.088C362.365 304.2 359.101 305.928 355.069 307.272C351.229 308.424 346.717 309 341.533 309C334.621 309 328.861 308.136 324.253 306.408C319.837 304.68 316.957 301.704 315.613 297.48C310.237 280.584 305.821 266.952 302.365 256.584C298.909 246.024 296.221 236.808 294.301 228.936H292.861C292.285 240.264 291.805 250.632 291.421 260.04C291.229 269.256 291.037 278.28 290.845 287.112C290.845 295.944 290.653 304.872 290.269 313.896C290.077 322.92 289.693 332.904 289.117 343.848C286.621 344.808 283.357 345.576 279.325 346.152C275.293 346.92 271.261 347.304 267.229 347.304C258.781 347.304 252.157 345.96 247.357 343.272C242.749 340.584 240.445 335.688 240.445 328.584L248.797 181.704C250.333 179.208 253.693 176.52 258.877 173.64C264.061 170.76 271.357 169.32 280.765 169.32C290.941 169.32 298.909 170.952 304.669 174.216C310.429 177.288 314.653 182.376 317.341 189.48C319.069 194.088 320.893 199.368 322.813 205.32C324.925 211.272 326.941 217.416 328.861 223.752C330.973 230.088 332.989 236.424 334.909 242.76C336.829 248.904 338.557 254.472 340.093 259.464H341.533C346.141 243.336 350.749 227.784 355.357 212.808C359.965 197.64 364.189 184.968 368.029 174.792C370.909 173.256 374.557 172.008 378.973 171.048C383.581 169.896 388.669 169.32 394.237 169.32C403.645 169.32 411.325 170.76 417.277 173.64C423.229 176.328 426.685 180.264 427.645 185.448C428.413 189.288 429.181 195.24 429.949 203.304C430.909 211.176 431.869 220.104 432.829 230.088C433.789 240.072 434.749 250.632 435.709 261.768C436.669 272.904 437.533 283.656 438.301 294.024C439.261 304.2 440.029 313.608 440.605 322.248C441.181 330.696 441.565 337.224 441.757 341.832C438.493 343.752 435.037 345.096 431.389 345.864C427.933 346.824 423.421 347.304 417.853 347.304C410.557 347.304 404.413 346.056 399.421 343.56C394.429 341.064 391.741 336.168 391.357 328.872C390.205 307.944 389.437 289.128 389.053 272.424C388.861 255.72 388.477 241.704 387.901 230.376H386.461C384.541 237.864 381.757 247.272 378.109 258.6C374.461 269.928 370.045 284.424 364.861 302.088Z" fill="white"/>
</g>
<defs>
<filter id="filter0_d_302:5" x="0" y="0" width="530" height="530" filterUnits="userSpaceOnUse" color-interpolation-filters="sRGB">
<feFlood flood-opacity="0" result="BackgroundImageFix"/>
<feColorMatrix in="SourceAlpha" type="matrix" values="0 0 0 0 0 0 0 0 0 0 0 0 0 0 0 0 0 0 127 0" result="hardAlpha"/>
<feOffset/>
<feGaussianBlur stdDeviation="7.5"/>
<feComposite in2="hardAlpha" operator="out"/>
<feColorMatrix type="matrix" values="0 0 0 0 0 0 0 0 0 0 0 0 0 0 0 0 0 0 0.25 0"/>
<feBlend mode="normal" in2="BackgroundImageFix" result="effect1_dropShadow_302:5"/>
<feBlend mode="normal" in="SourceGraphic" in2="effect1_dropShadow_302:5" result="shape"/>
</filter>
</defs>
</svg>
