<?xml version="1.0" standalone="no"?>
<!DOCTYPE svg PUBLIC "-//W3C//DTD SVG 20010904//EN"
 "http://www.w3.org/TR/2001/REC-SVG-20010904/DTD/svg10.dtd">
<svg version="1.0" xmlns="http://www.w3.org/2000/svg"
 width="700.000000pt" height="700.000000pt" viewBox="0 0 700.000000 700.000000"
 preserveAspectRatio="xMidYMid meet">
<metadata>
Created by potrace 1.14, written by Peter Selinger 2001-2017
</metadata>
<g transform="translate(0.000000,700.000000) scale(0.100000,-0.100000)"
fill="#000000" stroke="none">
<path d="M1075 6800 c-4 -6 -12 -10 -18 -8 -16 2 -121 -21 -177 -39 -89 -29
-234 -106 -300 -158 -45 -37 -146 -140 -175 -180 -17 -22 -32 -42 -36 -45 -3
-3 -8 -13 -12 -23 -4 -11 -12 -15 -18 -11 -8 4 -9 3 -5 -4 4 -6 -4 -29 -18
-50 -13 -22 -37 -76 -53 -121 -16 -45 -31 -80 -34 -77 -2 2 -4 -8 -5 -22 0
-15 -4 -47 -8 -72 -4 -25 -10 -58 -12 -75 -7 -47 -6 -4752 1 -4830 5 -61 12
-100 30 -165 6 -24 32 -92 51 -135 10 -22 18 -42 18 -45 1 -3 21 -37 46 -75
25 -39 44 -75 44 -82 -1 -7 1 -11 5 -10 4 1 43 -35 87 -79 44 -45 109 -100
144 -123 36 -22 70 -44 75 -48 22 -17 163 -73 213 -85 28 -6 52 -15 52 -20 0
-5 4 -7 9 -4 5 3 31 1 57 -4 54 -12 4824 -18 4842 -6 6 3 13 2 17 -4 4 -6 12
-7 18 -3 7 4 21 9 32 10 66 9 176 39 237 64 39 16 75 26 81 22 5 -3 7 -2 4 4
-8 13 87 65 99 55 5 -4 6 -3 2 2 -4 5 14 25 40 45 26 20 58 46 70 59 13 12 27
20 33 17 5 -4 8 -2 7 4 -2 5 21 37 49 70 29 33 53 62 53 65 0 3 17 31 38 61
20 31 37 60 37 65 0 5 8 18 17 30 10 11 16 20 13 20 -3 0 2 17 10 38 18 47 45
146 52 192 5 37 11 72 13 80 5 19 1 4784 -4 4820 -19 130 -36 193 -83 298 -12
29 -23 57 -23 62 0 6 -3 10 -8 10 -4 0 -13 14 -21 31 -19 43 -138 185 -201
239 -28 25 -75 60 -103 77 -28 18 -54 38 -59 45 -4 7 -8 10 -8 5 0 -4 -21 3
-47 16 -27 14 -72 32 -100 41 -29 10 -55 22 -59 27 -3 5 -9 7 -13 4 -6 -3
-101 11 -156 24 -3 0 -8 1 -12 2 -54 4 -4786 -1 -4790 -5 -3 -3 -12 -1 -19 5
-8 7 -14 7 -19 -1z"/>
</g>
</svg>
